<!--
  Placeholder wordmark in the brand's palette and type. Replace this file with the
  official logo artwork when it is available; nothing else needs to change.
-->
<svg xmlns="http://www.w3.org/2000/svg" viewBox="0 0 420 200" role="img" aria-label="Les Délices de Grace Lumière">
  <rect width="420" height="200" fill="#FFFFFF"/>
  <circle cx="210" cy="66" r="46" fill="none" stroke="#F2AFC3" stroke-width="1.6"/>
  <g fill="#F9D2DE" stroke="#E88AA5" stroke-width="1.6" stroke-linejoin="round">
    <path d="M210 96c-20-8-33-22-33-34 0-7 5-13 11-13 6 0 11 5 11 11 1-8 6-13 11-13s10 5 11 13c0-6 5-11 11-11 6 0 11 6 11 13 0 12-13 26-33 34z"/>
  </g>
  <path d="M210 26l2.6 7.4L220 36l-7.4 2.6L210 46l-2.6-7.4L200 36l7.4-2.6z" fill="#C9A227"/>
  <text x="210" y="150" text-anchor="middle" font-family="Georgia, 'Times New Roman', serif" font-size="38" fill="#E88AA5" letter-spacing="2">LES DÉLICES</text>
  <text x="210" y="176" text-anchor="middle" font-family="Helvetica, Arial, sans-serif" font-size="14" fill="#E88AA5" letter-spacing="6">DE GRACE LUMIÈRE</text>
</svg>
